<svg xmlns="http://www.w3.org/2000/svg" fill="none">
    <rect width="46" height="44" x="24" y="8" fill="#000" rx="16" />
    <path fill="#fff" d="M44.72 28.64h6.74v2.52h-6.74v-2.52Zm.24 5.76h7.62V37H41.74V23h10.58v2.6h-7.36v8.8Z" />
    <path
        fill="#000"
        d="m88.8 37-4.36-6.74 2.62-1.58L92.48 37H88.8Zm-9.1 0V23h3.22v14H79.7Zm2.28-5.64v-2.7h4.88v2.7h-4.88Zm5.38-1L84.38 30l4.54-7h3.42l-4.98 7.36ZM100.295 37v-2.1l-.2-.46v-3.76c0-.667-.206-1.187-.62-1.56-.4-.373-1.02-.56-1.86-.56-.573 0-1.14.093-1.7.28a4.336 4.336 0 0 0-1.4.72l-1.12-2.18c.587-.413 1.294-.733 2.12-.96a9.486 9.486 0 0 1 2.52-.34c1.64 0 2.914.387 3.82 1.16.907.773 1.36 1.98 1.36 3.62V37h-2.92Zm-3.28.16c-.84 0-1.56-.14-2.16-.42-.6-.293-1.06-.687-1.38-1.18a2.985 2.985 0 0 1-.48-1.66c0-.64.154-1.2.46-1.68.32-.48.82-.853 1.5-1.12.68-.28 1.567-.42 2.66-.42h2.86v1.82h-2.52c-.733 0-1.24.12-1.52.36-.266.24-.4.54-.4.9 0 .4.154.72.46.96.32.227.754.34 1.3.34.52 0 .987-.12 1.4-.36.414-.253.714-.62.9-1.1l.48 1.44c-.226.693-.64 1.22-1.24 1.58-.6.36-1.373.54-2.32.54Zm7.551-.18.16-2.56.24.04h.22c.373 0 .666-.107.88-.32.213-.213.373-.5.48-.86.106-.373.18-.793.22-1.26.053-.467.093-.953.12-1.46l.16-4.32h9.2V37h-3.12v-8.96l.7.76h-4.72l.66-.8-.14 2.7c-.04.96-.12 1.84-.24 2.64-.107.8-.287 1.493-.54 2.08-.254.573-.594 1.02-1.02 1.34-.427.307-.974.46-1.64.46-.24 0-.494-.02-.76-.06a8.25 8.25 0 0 1-.86-.18Zm20.5-7.3c1.413.013 2.487.333 3.22.96.747.613 1.12 1.487 1.12 2.62 0 1.187-.42 2.113-1.26 2.78-.84.653-2.007.98-3.5.98l-5.4-.02V26.24h3.1v3.44h2.72Zm-.7 5.12c.6.013 1.06-.113 1.38-.38.32-.267.48-.667.48-1.2 0-.533-.16-.913-.48-1.14-.32-.24-.78-.367-1.38-.38l-2.02-.02v3.12h2.02Zm14.609 2.2-3.6-5.1 2.54-1.5 4.74 6.6h-3.68Zm-7.62 0V26.24h3.12V37h-3.12Zm2.2-4.08v-2.5h3.76v2.5h-3.76Zm4.66-.94-2.92-.32 3.78-5.42h3.32l-4.18 5.74Zm6.827 9.06c-.56 0-1.113-.087-1.66-.26-.547-.173-.993-.413-1.34-.72l1.14-2.22a2.706 2.706 0 0 0 1.76.68c.44 0 .787-.107 1.04-.32.267-.2.507-.54.72-1.02l.56-1.32.24-.34 3.86-9.28h3l-4.86 11.42c-.347.867-.747 1.547-1.2 2.04-.44.493-.933.84-1.48 1.04-.533.2-1.127.3-1.78.3Zm1.84-3.62-4.8-11.18h3.22l3.72 9-2.14 2.18Zm6.863-.44.16-2.56.24.04h.22c.374 0 .667-.107.88-.32.214-.213.374-.5.48-.86.107-.373.18-.793.22-1.26.054-.467.094-.953.12-1.46l.16-4.32h9.2V37h-3.12v-8.96l.7.76h-4.72l.66-.8-.14 2.7c-.04.96-.12 1.84-.24 2.64-.106.8-.286 1.493-.54 2.08-.253.573-.593 1.02-1.02 1.34-.426.307-.973.46-1.64.46-.24 0-.493-.02-.76-.06a8.36 8.36 0 0 1-.86-.18Zm21.461.02v-3.58l.44.5h-2.98c-1.547 0-2.76-.32-3.64-.96-.88-.64-1.32-1.56-1.32-2.76 0-1.28.46-2.26 1.38-2.94.933-.68 2.186-1.02 3.76-1.02h5.14V37h-2.78Zm-7.66 0 2.86-4.1h3.18l-2.72 4.1h-3.32Zm7.66-4.54v-4.48l.44.8h-2.74c-.64 0-1.14.12-1.5.36-.347.24-.52.627-.52 1.16 0 1.027.66 1.54 1.98 1.54h2.78l-.44.62Zm8.078 4.54v-8.92l.7.72h-4.34v-2.56h10.38v2.56h-4.34l.7-.72V37h-3.1Zm12.994.16c-1.146 0-2.166-.24-3.06-.72a5.604 5.604 0 0 1-2.1-1.96c-.506-.84-.76-1.793-.76-2.86 0-1.08.254-2.033.76-2.86a5.402 5.402 0 0 1 2.1-1.96c.894-.48 1.914-.72 3.06-.72 1.134 0 2.147.24 3.04.72a5.261 5.261 0 0 1 2.1 1.94c.507.827.76 1.787.76 2.88 0 1.067-.253 2.02-.76 2.86a5.404 5.404 0 0 1-2.1 1.96c-.893.48-1.906.72-3.04.72Zm0-2.56c.52 0 .987-.12 1.4-.36.414-.24.74-.58.98-1.02.24-.453.36-.987.36-1.6 0-.627-.12-1.16-.36-1.6-.24-.44-.566-.78-.98-1.02-.413-.24-.88-.36-1.4-.36-.52 0-.986.12-1.4.36a2.73 2.73 0 0 0-1 1.02c-.24.44-.36.973-.36 1.6 0 .613.12 1.147.36 1.6.254.44.587.78 1 1.02.414.24.88.36 1.4.36Zm14.386 2.56c-.906 0-1.7-.2-2.38-.6-.68-.4-1.213-1.007-1.6-1.82-.373-.827-.56-1.867-.56-3.12 0-1.267.18-2.307.54-3.12.36-.813.88-1.42 1.56-1.82.68-.4 1.494-.6 2.44-.6 1.014 0 1.92.233 2.72.7a4.913 4.913 0 0 1 1.92 1.92c.48.827.72 1.8.72 2.92 0 1.133-.24 2.113-.72 2.94a4.913 4.913 0 0 1-1.92 1.92c-.8.453-1.706.68-2.72.68Zm-6.36 3.72V26.24h2.98v2.2l-.06 3.2.2 3.18v6.06h-3.12Zm5.82-6.28c.52 0 .98-.12 1.38-.36.414-.24.74-.58.98-1.02.254-.453.38-.987.38-1.6 0-.627-.126-1.16-.38-1.6-.24-.44-.566-.78-.98-1.02-.4-.24-.86-.36-1.38-.36-.52 0-.986.12-1.4.36-.413.24-.74.58-.98 1.02-.24.44-.36.973-.36 1.6 0 .613.12 1.147.36 1.6.24.44.567.78.98 1.02.414.24.88.36 1.4.36Z"
    />
</svg>
